<svg xmlns="http://www.w3.org/2000/svg" viewBox="0 0 748.4 265.5">
  <!-- from https://commons.wikimedia.org/wiki/File:Antarctosaurus_dinosaur.svg -->
  <path d="M.7 157.4s26.4-20.4 40.4-27.7 44-18.3 59.3-21.3c0 0 24.3-6.7 41.3-6.7 0 0 41-2.7 111.4 5.7 0 0 67 10.3 78.3 10.3 0 0 31-.3 38.3-7.7 0 0 26-5.6 55.4 0 0 0 51.6 17 72.3 17 0 0 69-24.6 107.7-54l37-27.3V43l1.6 1.7 2-2V40l1.7 1.7 2-2v-3l1.7 1.7 1.5-1.5V34l1.9 2 1.7-1.8v-2.8l2 1.9 1.5-1.6v-3.3l2.2 2.1 1.7-1.6-.8-3 2.3 2.2 1.3-1.3-1.3-2.5 3.1 1.7 1.1-1.1-2.3-3.6 4 2.6 1.5-1.5-2.9-4 5.2 2.4 1.5-1.5-2-2.2 3.8 1.4 2.1-1.1-2.9-2.9 5 1.1 1.3-1.2-2.4-2.4 5.2 1.4 1-1-3.4-1.8h6.9L688.2 8l4.8 1.1L694 8l-2.7-1.5 5.2.6 1-1-2.1-2.2 4.7 1.3 1.3-1.2-2.5-2.4 4.8 1.9 2-1s2.4-2.5 8-2.5 7.8 2.1 7.8 2.1 1.2 5.4 2.7 6.9l3.4 3.4s1.3 3.2 0 4.5l-1.2-.4v1.1s-1.2 2.1-5.5-.9c0 0-5.8-4-11.8 0l-40 30.3-54.6 47.5-36 34.1-63.5 55.8-22.9 21.8s-8.1 9.7-11 11c0 0 5.4 14.3 5.4 18.6v17.4s5.7 2.7 5.7 6.8c0 0 1 5.5-9.2 5.5h-12.4s-9.6-2.6-9.6-3.8c0 0-6 2.8-11.3 2.8s-11.3-4.5-11.3-4.5-.7-12.3 0-18.1l6.3-26.8s-62.3 9.3-65.8 9.3l-.3 22.3v8.4s4 .8 4 4c0 0-2 4.6-9.5 5.3h-14s-4.9-1.4-4.9-4.9V233s-8.6 9.1-10.3 13.4c0 0-5.7 9.6-5.7 13.3 0 0 3 0 3 3 0 0-3 2.7-16.6 2.7l-5.5-1.1s-4.6-4.3-3.3-7.2c0 0 17-41.7 20.2-43.5 0 0 1.3-5.7.3-6.7l-13-8S318 177 306 171.3c0 0-25-12-36-15.7s-41.4-12-41.4-12-51.5-17.2-59.8-17.2c0 0-48-2.4-63.1.9 0 0-44.1 7.7-54.2 12 0 0-30.4 8.2-48.8 19.5 0 0-2.6 2-1.9-1.4z"/>
  <g fill="#636466">
    <path d="M354.9 214.9c2.9-1.2 4.2-5.7 1.2-7.6-2.2-1.4-4.8 1.7-5.3 3.8-.6 3 1 5 4 3.8zM362.5 212.3c3.8-1.1 1.3-6.6-1.7-4-1.7 1.5-.8 4.7 1.7 4zM367.6 204c1.3-2 2-8.6-1.3-9.3-4.6-1-5.8 5.7-5 8.7.9 3.4 4.6 3.3 6.3.6zM354.7 196.1c-4.2 1.4-2 7.9 2.2 6 4.6-2 0-9-3-5.6M346.2 201c3.1-2.9-3-9-4-4-.5 2.4 1.2 6.6 4 4zM350.7 192.7c4.4-1.6 1.3-10.2-2.5-6.2-2 2.2-1.3 7.7 2.5 6.2zM360.7 193.9c5-3.3-1.9-12.4-4.7-7.4-.7 1.1-.6 2.6-.4 3.8.5 2.4 2.5 5.2 5.1 3.6zM363.8 184.6c3.5.5 2.9-5.4-.2-4.4-2 .6-2 4.1.2 4.4zM352.3 182.2c4.3 2.4 5.2-5.8 1.6-6.8s-4.3 5.2-1.6 6.8zM345.5 174.4c-3.1-1-5.6 2.2-6.5 4.7-.9 2.5-.8 7 2.8 6.4a8.6 8.6 0 005.7-4.6c1-2 .6-5.8-2-6.5zM340 158.7c-3.4 1-3.6 5.5-2.7 8.3.4 1.3 1.1 3 2.5 3.6 5.7 2.6 6.7-13.8.2-11.9zM351 170.3c3.1 1.3 4.7-3.7 2.4-5.4-3-2.1-6 3.9-2.4 5.4zM361.4 175.6c6.1-.2 3.4-12-1.8-8.7-3.2 2-2.7 8.9 1.8 8.7zM359.6 163.8l.5-.1c5.7-2.3-.3-15.4-5-10.8-3 3-.4 12 4.5 11zM348 158.6c4.6-.2 4.6-7.8.2-7.5-4.4.4-4.9 7.7-.2 7.5zM337.4 152c4.3 1.5 5.5-7.4 1.1-7.1-3.3.2-4.2 6-1 7zM356.2 141.6c1.2-5.4-6.1-4.2-8-1-1.2 2.4-1.4 6.8 2.4 6.3a7.2 7.2 0 005.6-5.3zM348.7 134.6c1-3.1-2.8-6.3-5.3-3.8-1.8 1.9-1.7 5.2.8 6.2 2 .8 3.9-.5 4.5-2.4zM331.9 133.5c5.3-1 1.2-6.5-2.4-6.7-2-.2-4.6.5-4.8 2.8-.3 3.3 4.9 4.3 7.2 3.9zM327 124c4.3-4.4-5.6-6.8-6.2-2.5-.4 3.4 4.1 4.6 6.2 2.5zM316.3 125.4c3.3-2.4-1.6-6.6-3.4-3.3-1.2 2 1.4 4.7 3.4 3.3zM339.6 118.3c-.8-3-6.3-3-7 .2-.5 2.8 1.8 5 4.5 3.8 1.3-.6 3-2.4 2.5-4zM341.9 127.3c2.8.2 9.5-2.5 7.8-6.6-1.5-3.4-7.7.4-9.4 2-2 1.8-1.3 4.4 1.6 4.6zM355.4 130.3c6 .7 7.4-10 1.3-7.6-2.8 1-6 7-1.3 7.6zM371.3 142c2.8-5.6-6.6-15.6-10-7.9-1.3 2.8.3 7.3 2.5 9.3 2.1 1.8 6.2 1 7.5-1.4zM361.8 113.2c-1.2-1.9-3.7-1.8-5.4-1.2-1.4.5-2.7 2.1-3.5 3.3-1.3 2-.8 2.8 1.4 2.8 2.4 0 10.3-.6 7.5-5zM368.6 112.5c-1.5.9-5 3-3.2-.2.7-1.2 2.2-3.1 3.6-3.4.8-.2 3.7 0 3.5 1.3-.1.9-3.3 1.9-4 2.3zM374.9 126c-3 1.7-4.9.9-7.7-.5-1.5-.7-2.4-1.3-1.9-3.2a13 13 0 017.1-7c2.6-1 8.6-1.1 9 2.7 0 1.2-1 4-1.7 5-1 1.4-3.4 2.1-4.8 3zM380.2 133.5c-3.3-.5-6-3.1-3-5.8 2-1.9 5-3.1 7.8-3.6 2.5-.5 10.2-1.6 9.5 3.2-.6 3.3-5.7 5.6-8.5 6-2 .4-3.8.5-5.8.2zM385.8 142.5c1.3-2.5-.9-4.4-3.1-4.4-1.8 0-4.1.7-5.5 1.9-2 1.8-1.4 4.2 1.4 4.8 2 .4 6.2-.2 7.2-2.3zM405 136.9c.4-2.3-2.4-4.4-4.5-4.7-2.4-.3-5.3 2-5.8 4.2-.5 2.5 1.2 4 3.6 4 2 0 6.4-1 6.8-3.5zM404.7 117.4c.2-2.5-1.9-4.3-3.9-5.3-2.6-1.4-4.5-1-7.3-1h-1.9c-1.5.6-2.1 2.3-2.5 3.6-1.4 4.7.8 5.9 5.4 6.2 3 .1 9.8.9 10.2-3.5zM384.4 112.3c-2 .6-7 1.3-9 .4-2-.8-1.2-3.2-.1-4.5a8 8 0 015.5-2.7c1.9-.2 4.4.5 5.5 2.2 1.2 1.8.1 4-2 4.6zM400.9 108c.3 1-.4.7-1.4.7-2.2 0-5 1-7 0-.8-.3 3.7-2.4 4.1-2.5 1.5-.1 3.8 0 4.3 1.8zM416.5 130.1c.8-3-2.5-5.8-5-6.3-3-.6-7-.7-8.6 2.3-2 4 2 6.1 5.4 6.7 2.5.4 7.3.4 8.2-2.7zM416.8 113.6c1.6 0 4.3.3 5.5-.8 2.2-2-.1-4.8-2.2-5.6-3-1.4-7.4-1.5-10.6-.5-2.2.8-3.3 3-1.2 4.8 2 1.7 6 2.1 8.5 2.1zM421.8 142.5c2.1-3.7-3.4-6.2-6.2-4.6-2.3 1.3-3.5 4.5-.9 6.2 2 1.2 6 .3 7.1-1.6zM430.8 128.5c-2.7-.8-7.4.9-7.3 4.3.1 2.8 2.2 3.5 4.2 5 3.1 2.1 6.5 2.6 9.9.2 1.3-.9 1.3-2.1.9-3.5-.6-2-1.4-2.3-3.1-3.1-1.6-.8-2.8-2.4-4.6-3zM437.3 124.4c.7-3.8-3.6-6.9-6.5-8.4-2.9-1.4-6.4-1.4-8.1 1.9-2 3.8 1.6 7.8 5.2 8.7 1.6.4 4 .3 5.6.2 1.6-.1 3.4-.6 3.8-2.4zM440.4 151.9c1.7-2.1-.2-3.7-1.2-5.4-.7-1.3-.7-2.3-2.2-3.1-2-1.2-5.5-.9-7.2.9-2.2 2.2-1.3 5 .8 6.9 2.8 2.7 7 4 9.8.7zM448.4 130.7c-2.7 1-6.7 6.2-4.3 9 .6.6 2 1.5 3 1.3 1.8-.2 6-5 6.3-6.8.5-2.3-3-4.3-5-3.5zM450 128.1c5.9-3.7-5.4-12.8-7.7-6.7-.4 1-.3 2.4.3 3.4 1.1 2 5 4.9 7.4 3.3zM439.7 118.5c1.5.6 3.7-.1 4-2 .4-2-2-3.2-3.6-3.7-1-.3-3.8-.3-4.4.9-.7 1.4 2.8 4.4 4 4.8zM460.6 118c-1.5-.4-6 0-6 2.4.2 1.8 3.2 3 4.6 3 1.2 0 4.5 0 5-1.3.8-1.6-2.2-3.8-3.6-4.1zM444.5 168.2c6.2 1.9 5.8-9.7-.1-9.6-5 0-3.8 8.4.1 9.6zM454.9 147c-3.7-2.3-7.6-.6-8 3.8-.2 3.5 2 6.8 4.5 9 1.3 1 2.4 2.3 4 1.3 1.2-.8 1.8-2.2 2-3.6.8-3.5.8-8.4-2.5-10.5zM466 146c2-3-1.5-7.6-4.2-8.6-1.6-.7-3.6.5-4 2.4-.3 1.9 1.7 3.8 2.7 5.2 1.6 2.2 3.5 3.8 5.5 1zM470.7 126.2c-2.2-1.2-11-.1-9.9 3.8.3.8 1.3 1.3 1.8 1.7l3.7 3c1.3 1 2.2 2 3.6 1.4 1-.4 2-1.6 2.4-2.6 1-2.3.7-6-1.6-7.3zM450.4 184.6c3.2-1 2.7-5 1-7.2-2.3-3.2-5.3.2-4.3 3.2.6 1.8 1.1 4.7 3.3 4zM457.7 167.6c-2.8-2.5-5.5 1.8-5.8 4.3-.3 2.8.7 5.9 3 7.4 2.5 1.6 5.6-2 6-4.2.3-2.4-1.4-6-3.2-7.5zM467.2 169.1c1.3-2.7-2-7-5-5.8-3 1.2-2.4 6.6.1 8 1.6 1 4.1-.6 5-2.2zM468.2 157.7c1.2-1.8-.6-6.3-3-6.3-2.6 0-1.2 4.5-.2 5.6 1.1 1.2 2.1 2.3 3.2.7zM473.8 164.3c2.6-1.4 2.6-6.7.6-8.6-1.2-1.2-3-1-4 .4-1.2 1.8-.5 4.3-.2 6.1.4 2 1.6 3.1 3.6 2zM472 178.4c4.4-1 1.2-9.7-2.4-7.1-2.7 1.9-1.1 8 2.5 7zM466.4 186.5c4.7 0 3-9.4-1.2-7.7-3 1.2-2.4 7.7 1.2 7.7zM459.8 190.3c1.1-1.7-.1-5.3-2.2-5.6-2.6-.2-3.2 3.6-1.9 5.2 1.1 1.3 3 1.9 4.1.4zM457.7 199.8c1.6-1.8.2-6-2.3-6.3-2.2-.2-3 3.2-2.3 4.8.8 1.8 3.2 3 4.6 1.5zM466.9 195.2c2.1-2-2.6-6.8-3.2-2.8-.2 2 1.1 4.6 3.2 2.8zM463.5 205.6c2.3-.9 0-5-1.8-2.8-1 1.2.2 3.5 1.8 2.8zM475 149.1c2 1 4.9.1 3.5-2.6-.8-1.5-4.7-3.3-6.1-1.8-1.6 1.6 1.4 3.9 2.7 4.4zM481.1 142.7c1.7-2 1.9-6.3-.9-7.5-3.3-1.6-4.8 3.7-3.9 6 .8 2 3.2 3.5 4.8 1.5zM489.6 129.7c2.7-6.6-12.9-9-11.9-3 .3 1.7 1.8 3 3.3 3.8 2.3 1.2 7.2 2.7 8.6-.8zM469.9 122.3c1.8-2.4 5-1.6 7-.1-.7.4-5.8.3-6.5-.2M499.9 126.2c-1 .8-3-.3-3.8-.5-.2 0-3.2-.7-2.7-1 1.3-1 3.4-1.5 5-.8.5.3 2.1 1.8 1.5 2.3zM503.7 131.5c2.8-3-4.4-4.6-6.2-3.4-1.8 1-1.1 2.9.5 3.7 1.5.7 4.5 1 5.7-.3zM495.8 137.1c3.6-5.6-10.7-3.6-6.2 1.6 1.5 1.8 5.2 0 6.2-1.6zM485.8 149.3c2.3-.2 4.2-3 3.5-5.2-.7-2.4-5-2-6.3-.2-1.6 2.3 0 5.6 2.8 5.4zM499.7 144.4c1.6-.7 3.2-3.4 1.7-5-1.6-1.6-4.2.7-4.4 2.4-.2 1.8.8 3.3 2.7 2.6zM508.3 138.6c4.2-.6 1.6-6.3-1.5-4.4-2 1.3-1.1 4.8 1.5 4.4zM507.5 127.1c1.5 2.4 6.8-.8 8.2-2 1-1 3-3.4 1.3-4.4-1.5-1-4.7.4-6 1.1-1.5.9-4.9 3.2-3.5 5.3zM518.3 132.7c2.9.8 4.3-4.8 1.3-4.4-1.8.2-3.8 3.6-1.3 4.4zM523.8 125.3c3.4 0 3.3-6.8 0-5-1.8.8-2.6 4.9 0 5zM531 126.4c3.4.3 4-6.8.4-4.8-1.9 1-3.8 4.5-.4 4.8z"/>
    <path d="M364 219c3.5-7 5-14.8 5.7-23.3.9-11.2 1-22.4 1.4-33.6 14.4-3 28.1-3.3 42.6-.7 8.9 1.5 20 4.4 23.8 13 4.3 10 5.6 21 10.6 31 4.1 8.5 6.7 19 9.2 28.3 2.2 8.2 5.7 19.1 3.2 27.3 1.5-8-1-16.8-2.8-24.5-1.3-5-2.5-10.2-4.7-14.9-2.5-5.4-4.2-6.8-10.2-5.7-4 .7-7.8 1.5-11.8 2a6789 6789 0 01-26.2 3.9c-7.3 1-14.7 2.7-22.1 2.6-1.3 0-18.3-3.4-17.5-4.7a94.5 94.5 0 01-11.7 13.4c4.7-4.3 8.1-9 10.6-14zM.1 157.2s29.5-17.1 43.5-24.5 50.8-16.6 66.1-19.6c0 0 35-10 85.3 1 0 0 57.6 17.1 120 33.3 0 0 11.4 4 10 13.6-.6 4.6.5 10.5 1.4 15-3.6-6-6-13-4.8-20-1.3 6.2 0 12.4 2.4 18 2.7 6 8.6 10.5 9.7 17l1.6 7.7c.3 1.2.3 8.3 1.3 8.6-5.2-1.8-9-5.7-13.7-8.6 0 0-5.5-21.8-17.6-27.6 0 0-25-11.9-36-15.6s-41.4-12-41.4-12-51.5-17.3-59.8-17.3c0 0-48-2.3-63 1 0 0-6.7 1.4-12.4 2.4-.8.2 1-8 0-7.9-.6.1-1.3 8-2 8a319 319 0 00-40 9.4S20.5 147.4 2 158.6c0 0-2.6 2.1-1.9-1.4z"/>
  </g>
  <path fill="none" stroke="#000" d="M113.4 261.4c2.8-.3 5.5-1.9 8.3-1.3 2 .4 2.5 2.2 5 2 2.2-.2 3.6-1.9 5.7-2 2.1-.3 5.8 1 8.5.9l-.4-.4c3.3-1.7 11.2 0 14.5.8-.8 0-1.7.4-2.3.6 4.8.2 13 .9 17-1.2l-1.5-.4c2.2-.1 4.3-.5 6.5 0 0 .3-.4.3-.3.6 7.8 2 19.3-.2 27.3-1.3h-.9c4.4-.7 7.6 2.4 12.6 1 1.5-.5 4.3-1.3 5.3-2.4 4 1.9 9.3-3.3 13.7-.7l-1 .7c.5.3.8-.2 1-.1.1.1-.1.6 0 .8 4.7-1.3 11.4-.6 15.6-1 4.5-.3 10.8-1 15.3.8a1 1 0 00-.3.6c4.7 1.5 10.8.4 15.7 1.3l-.3-1.3c2.3 2 7-.4 9.6-1l.5.9c5-2 11.2.9 16.5-.6l.4 1c-.6-1 16.6-1 18-.9 2.5.1 13.7 1.8 14.8-1.8 2 0 3.8.6 5.5.5 2.7-.2 4.9-2.3 7.6-.5-.1.3-.3.5-.5.6 4.6 1.4 9.8.3 14.6-.1 6.1-.5 11.6 0 17.6.5 8.2.8 17.1.4 25.6.8l-1.4.6c2 .7 5.3-.6 6.9-2h-1.6c9.9-1.2 21.2-1 31.2-1 16.2 0 33.8 2.4 49.7-1 1.1 1.8 9.6.6 12.2.7 4.3 0 8.5 1 12.8.8 4.6-.2 8.8-2 13.4-2.2 4-.2 5.7 1.7 9.1-1.2 3.3 2.1 8.5.4 12.1.3 4.5-.2 9.4.3 13.7 1.3 7.5 1.8 19.2 4.6 27.3 1.4l-1.2-.7c5.4-.2 10.8-1.4 16.1-1-.4.5-.5 1.5-.8 2 15.7 3.3 31-.5 46.9.3l-1 .7c6 1.5 12.6.8 18.7 1.5a40 40 0 0016.7-1c0-.2-.1-.3-.2-.3 2 .6 4.3.3 6.5.4-4.5 4.1 3.7 2 5.7 1 1.7 3.7 6.9.7 9.7.6 5.1-.1 10.6 2 16 2 7 .2 14.2-.3 21.3-.3"/>
  <path fill="#636466" d="M721.3 17.1s-5.8-4-11.8 0l-40 30.3L615 94.9l-36 34-63.5 55.8-13.8 13.2c-6.8 6.5-15.7 11.8-20 20.4a20 20 0 01-1.8-8.5c-.2-3-1.2-4.9-1-7.8v-.7c.6-4.7 3.2-10 4.4-14.6 1.3-5.4 3-11.4 3-17 0 .8 3.2 2.4 3.6 3.6.7 2.5-.8 6.3-1.7 8.6-1.3 3-3 6-4 9.1 2.9-4 4.8-9 6.4-13.6-.8 2.3 5.4-1.3 5.9-1.6 4.6-3.1 10-6 14.3-9.4 12.5-9.8 25-19.7 38.4-28.2 7.3-4.6 14.2-9.9 21-15.4 5.6-4.7 10.8-10.8 16.9-14.7 7.4-4.7 13.6-12.7 20.4-18.4 7-6 14.3-11.7 21-18 4.5-4 9.2-8 14-11.7 8-6.1 15.6-12.7 23.7-18.7 9.7-7.2 19.1-14.8 28.6-22.2 5.5-4.3 18.2-17 25.6-9 1.4 1.4 6.7 5.6 7 7.4.7 3-5.1.3-6-.4z"/>
  <path d="M667.6 202.5l.5 1.4c.3 1.1.7 1.9 1.3 2.8 1.4 2 2.8 4.2 4.4 6.2.5.6.9 1.6 1.8 1.7l1.9-.4c.8-.5 0-1.2-.5-1.5-1-.6-1.5-.4-1-1.8l1.4.6-1-1c.2-.3.7-.8.6-1.1 0-.3-.4-.4-.4-.5 0-.3-.4-.2-.3-.6.1-1 3.4-2.2 4.2-2.2 1.6-.1 2.6 1.1 3.2 2.5.8 1.4.4 2.4-1 3.3-.4.4-1 .8-1.2 1.4-.3 1 .3 1 1 1.3 1.6.5 2.5 1.8 3.4 3.1 1.7 2.6 5 7 5.2 10.2.1 2.4-2 4.9-2.4 7.1-.3 1 0 2.2-.1 3.2-.3 1.4-1.9 2.6-2.8 1.1.4.6.2 2.6.2 3.4l.3 3.7c0 2.6.4 5 .6 7.6 0 .4 1.4 4.4 1.6 4.1-.4.5-5 1.9-5 1.2 0-1 1-1.3 1.2-2 .3-.7 0-1.5-.2-2.2l-1.4-5c-.8-3.1-1.2-7.2-2.4-10 .1.2-.7 1.7-.8 2l-.7 2.3c-.4 1.5-.6 3-.8 4.5l-.7 4.8c-.2 1.4-.7 2.7-.6 4.1l.1 1c-.1.3-.3.2-.7.4-.9.3-2 0-2.9 0-.8.1-3 .4-3.6 0 1.2-1.1 3.2-1 4.5-2 1.5-1.3.2-4.2.3-6 0-1.3-.3-2.6-.3-4l.3-4.6.9-10.4c0-1.6.3-2.8-.2-4.5-.6-2.5-1.4-5-1.6-7.5-.3-3.5-3-6.5-5.2-9a14.2 14.2 0 01-3-6.8l-.8-4.9c-.2-1-.4-1-1.2-1.4-.2 0-2.2-1.7-1.8-1.8.5-.1.8.3 1.2.5-.3-.5-1-1.2-.8-1.8l1.3 1.1c0-.7-.9-1.3-.9-2.1.8 0 1 1.2 1.6 1.6.2-.7-.7-1.7-.6-2.5 1 .2 1.1 2.2 1.5 3 .4-.5.7-1 1.2-1.2.6.5.1.5 0 1-.6 2.1.4 4.4 1.2 6.6z"/>
</svg>
