<svg xmlns="http://www.w3.org/2000/svg" viewBox="0 0 840.1 557">
  <!-- from https://commons.wikimedia.org/wiki/File:Sauroposeidon_dinosaur.svg -->
  <path d="M46 414s43 2 94.9-22.5c18.7-8.8 39.1-17.2 56.4-28.6 54.4-35.7 103.4-90 171.6-100 0 0 4.8-2.7 18.2-2.7 0 0 36.3 3.7 47.4 0 6.5-2.1 13.7-3.9 20.4-5.5 11.1-2.6 21-6.8 31.8-10.8a271 271 0 0036.7-17.4c21-11.6 41.8-24 61-38.4a328.2 328.2 0 0050.6-46.9c7-8 15.3-15 22.7-22.8 8-8.6 16-17.2 24.3-25.5a175.2 175.2 0 0144.6-34.2c7-3.4 12.5-7.4 19.9-9.7 5.8-1.8 11.2-4.8 17.5-1.8 0 0 4.2 2 4.2 7.4 0 0 .4 10.2 5.8 12.8 0 0 7.8 4.6 3.1 11.1l-5.9 1.9v-1.7l-6.1-3.9 1.5 4.5 1.7 1.7v2.7s-3.4 6.3-9.7 0c0 0-7.6-9-13.2-9 0 0-9.4-1.5-18.5 10.1l-60.4 72.7s-49.4 60.3-58 66.6c0 0-31.8 27.8-60.7 45.6-29 17.8-49.3 21.8-76 40.4 0 0-5.8 1.1-8.4 12 0 0-8.2 15.9-17.4 25 0 0 8 48.8 8 56 0 0 15.6 41.8 15.6 47.3l3.3 24.5s7.8 9.5 0 9.5h-20.6s-3.3 1-3.3-3.4c0 0 3-23.6 0-26.7 0 0-22.3-38.4-22.3-41.1-1.2 8.4-2.4 17-4.8 25.1a99.2 99.2 0 00-2 35.4c.3 3.6 1.4 4.7 2.3 7.6.7 2.2 2.2 4.2-1.6 4.2h-21.1c-5.3 0-.5-5.1-.2-7.2.5-3.3-1.6-8.5-1.8-12-.6-13.4-1-26.7-.7-40.1.1-6-.3-11.7-.9-17.7-.2-2.1-3.2-19-2-19.8 0 0-23.3 15-35 15 0 0-34.5 2.2-46.2-2.8 0 0 3.6 25.3 0 29 0 0-8.6 31.4-3.9 36.1 0 0 4 9.2 9.2 9.2 0 0 9.7 9.7 4.2 9.7h-30s-3.7 1.1-3.7-3.6v-24.8c0-6.3-4-13.8-4.8-20.3-.6-4.4-.9-9 .5-13.3.8-2.5 2.3-3.2 1.5-6.1-.3-1.2-1.4-2.4-2.2-3.3-3.2 6.8-7 13.4-10 20.3-2.3 5.7-6.3 11.7-9.2 17.2-2 3.4-5.3 6.6-6.8 10.2-.7 2 .2 3.7-1.4 5.3 3.7 6.7 9.5 12.1 13 19.2l-1.5.4c.3.7.2 1.5.3 2.2-4.9-1.4-11-.1-15.9-.7-7.6-1-20.2-12.6-17.3-21 .5-1.7 2.4-3.4 3.1-5.3a98.5 98.5 0 004.3-18.5c.9-6.1 1.3-10.8 5-16 3.9-5.3 7.5-9 8.3-16 .8-7.7-1.1-15.2-2-22.8-7.7.9-11.6-6.3-19.2-6.5-8-.1-15 6.1-22.2 8.8-11.2 4.2-22.4 8.5-33.8 12.2-26 8.6-53.1 14.6-80.4 17-9 1-18.2 2-27.3 2.3-4.4 0-27.5 1.8-30-2.2 0 0-3.3-5.4 5.5-5.5z"/>
  <path fill="none" stroke="#000" d="M37.7 489.9c3.2-.4 6.3-2.5 9.5-1.7 2.3.5 2.9 2.8 5.8 2.6 2.4-.3 4-2.4 6.4-2.7 2.4-.3 6.7 1.4 9.7 1.3l-.4-.5c3.8-2.3 12.7-.1 16.4 1-.9.1-2 .6-2.5.8 5.4.3 14.7 1.2 19.4-1.6l-1.8-.4c2.6-.3 5-.7 7.4 0 0 .3-.4.3-.3.6 9 2.6 22-.2 31-1.6h-.9c5-1 8.7 3.1 14.3 1.2 1.7-.6 5-1.7 6.1-3 4.7 2.4 10.6-4.4 15.6-1-.4.4-.8.6-1 1 .4.3.8-.3 1-.3.2.2-.1.8 0 1.1 5.3-1.6 13-.7 17.9-1.2 5-.5 12.2-1.4 17.3 1l-.2.8c5.2 1.9 12.3.5 17.8 1.6l-.3-1.6c2.6 2.7 7.9-.6 11-1.3.2.2.2.7.4 1 5.8-2.4 12.9 1.3 19-.6l.3 1.2c-.7-1.3 19-1.2 20.5-1.1 2.9.2 15.7 2.4 16.9-2.4 2.4 0 4.4.8 6.3.6 3-.2 5.6-3 8.7-.5l-.5.7c5.2 1.9 11 .3 16.5-.2 7-.6 13.3 0 20.1.8 9.4 1 19.6.4 29.2 1l-1.6.7c2.3 1 6-.7 7.9-2.5l-1.9-.1c11.3-1.6 24.2-1.3 35.7-1.3 18.4 0 38.5 3.2 56.6-1.3 1.3 2.3 11 .8 14 .8 4.9.1 9.6 1.5 14.5 1.2 5.2-.3 10-2.6 15.3-3 4.6-.3 6.5 2.3 10.4-1.6 3.7 2.9 9.7.7 13.8.4 5.1-.2 10.6.4 15.6 1.8 8.5 2.4 21.9 6 31 1.8l-1.2-1c6-.1 12.2-1.7 18.4-1.3-.5.7-.7 2-1 2.7 18 4.4 35.3-.6 53.4.4l-1 1c6.9 1.9 14.3 1 21.2 1.9 6.1.8 13 1 19-1.3 0-.2 0-.3-.2-.4 2.5.8 5 .4 7.5.6-5.1 5.4 4.2 2.7 6.5 1.3 2 5 7.8 1 11 .8 5.9-.2 12.1 2.5 18.2 2.7 8.1.2 16.2-.5 24.4-.5"/>
  <path d="M654 422.4l.6 1.7c.4 1.3.7 2 1.5 3.1 1.6 2.4 3.2 4.8 5 7 .6.8 1 1.9 2 2l2.2-.4c1-.6 0-1.3-.6-1.7-1-.7-1.6-.5-1.1-2l1.6.6-1.1-1.2c.1-.3.7-.8.6-1.2 0-.3-.4-.4-.4-.6 0-.3-.5-.2-.4-.7.2-1 4-2.5 4.8-2.5 1.8 0 3 1.4 3.7 2.9.8 1.6.4 2.8-1 3.8-.6.4-1.4 1-1.6 1.6-.3 1.2.5 1.1 1.3 1.4 1.8.7 2.8 2 3.8 3.6 2 3 5.6 8 5.9 11.6.2 2.7-2.2 5.6-2.8 8.1-.2 1.2.2 2.5-.1 3.7-.3 1.5-2.1 2.9-3.1 1.2.4.7.2 3 .2 3.9l.3 4.2c.1 2.9.5 5.8.7 8.6 0 .5 1.6 5 1.9 4.7-.5.6-5.7 2.2-5.7 1.3 0-1 1-1.4 1.3-2.2.3-.8 0-1.7-.2-2.5l-1.7-5.8c-.8-3.5-1.2-8.2-2.6-11.3.1.3-.9 2-1 2.3l-.8 2.6-1 5.2-.7 5.4c-.2 1.6-.8 3-.7 4.7l.2 1c-.2.4-.4.4-.9.6-1 .3-2.2 0-3.2 0-1 .1-3.4.4-4.2-.1 1.5-1.2 3.7-1 5.2-2.2 1.8-1.5.2-4.8.3-6.8 0-1.5-.3-3-.3-4.6l.3-5.2 1-11.9c.2-1.8.3-3.2-.1-5.1-.7-2.9-1.7-5.7-2-8.6-.3-4-3.2-7.4-5.8-10.1-2-2-2.8-5.3-3.3-8-.4-1.8-.8-3.6-1-5.4-.3-1.2-.5-1.1-1.4-1.6-.2-.1-2.5-2-2-2.1.5-.2.8.3 1.3.5-.4-.5-1.2-1.3-.9-2 .5.4 1 1 1.5 1.3 0-.9-1-1.5-1-2.5.8.2 1.1 1.4 1.8 2 .2-1-.9-2-.8-3 1.1.3 1.4 2.6 1.8 3.4.4-.5.8-1 1.3-1.3.8.5.2.6 0 1-.7 2.6.6 5.2 1.5 7.6z"/>
  <path fill="#636467" d="M45.8 417l5.6.5c9.2 0 18.6-.6 27.7-1.6a284 284 0 0078-21.3c14.3-5.7 29.1-10.7 43-17.5 8-4 15.4-9.5 23.7-13.4 4.3-2 9-2.3 13.6-3.7 4.5-1.4 10.1-4.4 15-3.6-7.9 5.8.2 24.2.7 31.8-3.4-1.3-6.3-1.5-9.6-3.2-3-1.5-5.7-3.4-9.3-3.5-8-.1-15 6.1-22.2 8.8-11.2 4.2-22.4 8.5-33.8 12.2-26 8.6-53.1 14.6-80.3 17-9.1 1-18.2 2-27.4 2.3-7.2.1-14.5.8-21.7.2-2-.2-7-.2-8.2-2.2-1.5-2.6 1.8-3 5.2-2.8zM283.1 413.3c3.3-7 7.9-13.6 10.5-20.6 3.4-9.1 4.4-19.7 6.7-29 1.2-4.7 1-7 4.3-10.7 13.2-14.4 32.6-28 52.3-30.5 6-.8 11.7-1 17.6.4 2.6.7 6.2 2.8 8.8 1.3 2 1.5 4.3 2 7 1.7a26 26 0 013.7-8.1c-5.2 18.5 4.9 39.3 11.6 56.3 1.3 3.2 3 6.3 4.8 9.2 3.3 5.2 6.9 10 9.9 15.4 1.7 3 2.6 6 3.8 9.2 1 2.7 3 5 3.6 7.7-1.3-5.2-5.8-9.4-8-14.2a221 221 0 00-14.2-21.3c-2.4 3.4-7.9 6.7-11.5 8.9l-8.9 5.2c-8 4.9-16.7 8.9-26.2 9.5-7 .5-14 .6-21 .5-5.3-.1-11.2 0-16.5-1.1-6.2-1.3-11.9-4.5-18.1-5.9-3.4-.7-6.4-1.1-9-3-3.1 6.6-7.6 12.8-11.2 19.1zM726.9 84.8l-60.4 72.7s-49.4 60.3-58 66.6c0 0-31.8 27.8-60.7 45.6-29 17.8-49.3 21.8-76 40.4 0 0-5.8 1.1-8.4 12-2.4 10.2-12.6 18.7-19.4 25.8l-1-4.8c-2.2-13-2.6-27.2.4-40.2 2.1-9.5 7.2-12 16.2-17.5 18.4-11.3 39-18.7 57.4-29.8 17.2-10.4 35.7-19 51.8-31.3a563.3 563.3 0 0053.3-45c21.9-21.4 40.2-46 60.8-68.6 16.3-18 41.7-47.7 67.4-52.3-18.2 3.3 6.6 21.2 11 26.2-5.5-3-10-10.6-16.7-10.8-6-.2-14 6.7-17.7 11z"/>
</svg>
